<?xml version="1.0" encoding="UTF-8"?>
<!DOCTYPE svg  PUBLIC '-//W3C//DTD SVG 1.1//EN'  'http://www.w3.org/Graphics/SVG/1.1/DTD/svg11.dtd'>
<svg enable-background="new 0 0 79.644 66" version="1.1" viewBox="0 0 79.644 66" xml:space="preserve" xmlns="http://www.w3.org/2000/svg">
<path d="m42.616 65.922l28.894-28.894 2.174-2.174c7.946-7.946 7.946-20.948 0-28.894s-20.948-7.946-28.894 0l-2.174 2.174" fill="#DF3F30"/>
<path d="m37.892 8.134l-2.174-2.174c-7.946-7.946-20.948-7.946-28.894 0s-7.946 20.948 0 28.894l2.174 2.174 28.894 28.894" fill="#DF3F30"/>
	<path d="m16.07 25.869v21.34h-6.175v-28.439h-3.445v-5.965h9.83l11.846 23.147-3.444 6.889-8.612-16.972zm13.778 6.637l-3.444-6.721 6.511-12.981h6.511v34.405h-6.175v-21.34l-3.403 6.637z" fill="#fff"/>
	<path d="m47.345 48.992h4.663v6.176h-4.663c-3.403 0-6.175-2.773-6.175-6.134v-2.017h6.175v1.975zm0-10.25h4.663v6.176h-4.663c-3.361 0-6.049-2.73-6.049-6.134v-16.971h6.175s-0.084 16.131-0.126 16.929zm7.813-16.929h6.175v27.221c0 3.36-2.772 6.134-6.133 6.134h-0.084l0.042-33.355z" fill="#fff"/>
</svg>
