<?xml version="1.0" encoding="utf-8"?>
<!-- Generator: Adobe Illustrator 18.0.0, SVG Export Plug-In . SVG Version: 6.00 Build 0)  -->
<!DOCTYPE svg PUBLIC "-//W3C//DTD SVG 1.1//EN" "http://www.w3.org/Graphics/SVG/1.1/DTD/svg11.dtd">
<svg version="1.1" id="Layer_1" xmlns="http://www.w3.org/2000/svg" xmlns:xlink="http://www.w3.org/1999/xlink" x="0px" y="0px"
	 viewBox="0 0 2480 2480" enable-background="new 0 0 2480 2480" xml:space="preserve">
<g>
	<path fill="#FFFFFF" d="M1239,24.6c-327.4,0-641.1,136.4-859.3,354.6C164.2,597.4,25,911.2,25,1238.5
		c-0.2,450.4,242.5,835,599.9,1050.5c177.3,106.4,395.6,166.4,613.8,166.4c341,0,638.4-136.4,859.3-357.4
		c294.9-294.6,434-747.5,314-1181.5C2270.2,398.3,1801,24.6,1239,24.6L1239,24.6z M1080.8,1844.4c-122.8,120-321.9,120-444.7,0
		c-122.8-122.8-122.8-321.9,0-444.7l313.7-314c122.8-122.8,321.9-122.8,444.7,0l8.2,8.2c2.7,2.7,5.5,2.7,5.5,5.5l13.6,16.4
		c0,0,0,0,0,2.7c19.1,32.7,13.6,62.7-13.6,90c-24.6,24.6-54.6,30-87.3,10.9c-2.7,0-13.6-13.6-32.7-27.3
		c-65.5-65.5-163.7-62.7-231.9-2.7l-314,316.7c-65.5,62.7-65.5,166.4,0,231.9c65.5,62.7,166.4,62.7,231.9,0l188.2-191
		c70.9,35.5,141.9,35.5,210.1,2.7L1080.8,1844.4z M1844.6,1077.6l-313.7,316.7c-122.8,120-321.9,120-444.7,0l-5.5-5.5l-5.5-5.5
		c-2.7-2.7-2.7-2.7-2.7-5.5l-13.6-16.4c-19.1-32.7-13.6-62.7,10.9-87.3c27.3-27.3,57.3-32.7,90-16.4c2.7,0,5.5,2.7,10.9,8.2
		l21.8,21.8c65.5,62.7,166.4,62.7,231.9,0l313.7-316.4c65.5-62.7,65.5-166.4,0-229.2c-65.5-65.5-166.4-65.5-231.9,0l-188.2,188.2
		c-70.9-35.5-141.9-35.5-210.1-2.7L1400,635.9c122.8-122.8,321.9-122.8,444.7,0c62.7,60,92.8,133.7,92.8,221
		C1937.4,943.9,1907.4,1017.5,1844.6,1077.6z"/>
</g>
</svg>
